<?xml version="1.0" encoding="utf-8"?>
<!-- Generator: Adobe Illustrator 19.0.0, SVG Export Plug-In . SVG Version: 6.00 Build 0)  -->
<svg version="1.1" id="Layer_1" xmlns="http://www.w3.org/2000/svg" xmlns:xlink="http://www.w3.org/1999/xlink" x="0px" y="0px"
	 viewBox="0 0 360 360" style="enable-background:new 0 0 360 360;" xml:space="preserve">
<style type="text/css">
	.st0{fill:#010101;}
</style>
<g id="XMLID_2_">
	<path id="XMLID_7_" class="st0" d="M269,81.1H88.8c-6,0-10.8,4.8-10.8,10.8v46.9h201.9V91.9C279.9,85.9,275,81.1,269,81.1z
		 M117.6,120.7c-6,0-10.8-4.8-10.8-10.8c0-6,4.8-10.8,10.8-10.8c6,0,10.8,4.8,10.8,10.8C128.5,115.9,123.6,120.7,117.6,120.7z
		 M240.2,120.7c-6,0-10.8-4.8-10.8-10.8c0-6,4.8-10.8,10.8-10.8c6,0,10.8,4.8,10.8,10.8C251,115.9,246.2,120.7,240.2,120.7z"/>
	<path id="XMLID_6_" class="st0" d="M164.5,196.4V146h-28.8v50.5c0,6.7-4.6,12.3-10.8,13.9v72.6h50.5v-72.6
		C169.1,208.7,164.5,203.1,164.5,196.4z"/>
	<path id="XMLID_5_" class="st0" d="M106.8,196.4V146H78v126.2c0,6,4.8,10.8,10.8,10.8h28.8v-72.6
		C111.5,208.7,106.8,203.1,106.8,196.4z"/>
	<path id="XMLID_4_" class="st0" d="M222.2,196.4V146h-28.8v50.5c0,6.7-4.6,12.3-10.8,13.9v72.6H233v-72.6
		C226.8,208.7,222.2,203.1,222.2,196.4z"/>
	<path id="XMLID_3_" class="st0" d="M251,196.4c0,6.7-4.6,12.3-10.8,13.9v72.6h21.6c9.9,0,18-8.1,18-18V146H251V196.4z"/>
</g>
</svg>
